<?xml version="1.0" encoding="utf-8"?>
<!-- Generator: Adobe Adobe Illustrator 24.2.0, SVG Export Plug-In . SVG Version: 6.00 Build 0)  -->
<svg version="1.1" xmlns="http://www.w3.org/2000/svg" xmlns:xlink="http://www.w3.org/1999/xlink" x="0px" y="0px" width="300px"
	 height="300px" viewBox="0 0 300 300" style="enable-background:new 0 0 300 300;" xml:space="preserve">
<style type="text/css">
	.st0{fill:#FFFFFF;}
</style>
<g id="Layer_2">
	<rect x="0" y="0" class="st0" width="300" height="300"/>
</g>
<g id="book">
	<path d="M83.61,250h126.07c7.36,0,13.33-5.6,13.33-12.5V106.25c0-3.45-2.98-6.25-6.67-6.25H103.33c-0.33,0-0.99,0.05-1.61,0.09
		L83.61,100c-11.19,0-20.28-8.01-20.28-18.49c0-10.49,8.81-19.01,20-19.01h153.33v143.75c0,3.45,2.67,6.25,6.36,6.25
		s6.97-2.8,6.97-6.25v-150c0-3.45-3.29-6.25-6.97-6.25H83.61C65.25,50.01,50.3,63.84,50.05,81.05L50,80.99v137.5
		C50,235.89,65.05,250,83.61,250z"/>
</g>
</svg>
