<?xml version="1.0" encoding="utf-8"?>
<!-- Generator: Adobe Adobe Illustrator 24.2.0, SVG Export Plug-In . SVG Version: 6.00 Build 0)  -->
<svg version="1.1" id="Layer_1" xmlns="http://www.w3.org/2000/svg" xmlns:xlink="http://www.w3.org/1999/xlink" x="0px" y="0px"
	 width="50px" height="50px" viewBox="0 0 50 50" style="enable-background:new 0 0 50 50;" xml:space="preserve">
<style type="text/css">
	.st0{fill:#FFFFFF;stroke:#FFFFFF;stroke-width:2;stroke-linecap:round;stroke-linejoin:round;stroke-miterlimit:10;}
	.st1{fill:#F3E064;stroke:#F3E064;stroke-width:0.5;stroke-linecap:round;stroke-linejoin:round;stroke-miterlimit:10;}
	.st2{fill:#F92891;stroke:#F92891;stroke-width:0.5;stroke-linecap:round;stroke-linejoin:round;stroke-miterlimit:10;}
	
		.st3{clip-path:url(#SVGID_3_);fill:#28B0D1;stroke:#28B0D1;stroke-width:0.5;stroke-linecap:round;stroke-linejoin:round;stroke-miterlimit:10;}
	.st4{fill:#28B0D1;stroke:#28B0D1;stroke-width:0.5;stroke-linecap:round;stroke-linejoin:round;stroke-miterlimit:10;}
	.st5{stroke:#000000;stroke-width:0.5;stroke-linecap:round;stroke-linejoin:round;stroke-miterlimit:10.0002;}
</style>
<path class="st0" d="M24.78,26.02c9.71-4.46,14.62-1.26,22.4-0.63l1.75,23.52c-5.74-2.05-18.77-5.33-24-0.27
	c-5.23-5.06-18.11-1.8-23.85,0.25l1.35-23C10.2,25.26,15.41,21.76,24.78,26.02z"/>
<path class="st1" d="M16.13,43.35c3.17,1.49,8.64-0.9,6.37-5.41c-1.87-3.75,3.35-6.23,5.07-3.1C29.26,38.2,26.37,48.11,16.13,43.35z
	"/>
<path class="st2" d="M15.75,42.99c7.39,2.97,10.97-4.8,9.36-11.13c0.11-4.39,5.89-3.77,5.94-0.59c0.22,8.26-6.99,15.09-15.25,11.76
	L15.75,42.99z"/>
<g>
	<g>
		<path id="SVGID_1_" d="M20.79,42.92c-4.23,1.39-5.57-3.02-1.69-5.6c8.59-5.72,0.27-16.94-7.2-10.27
			c-5.01,5.52-4.26,15.4,5.97,17.46"/>
	</g>
	<g>
		<defs>
			<path id="SVGID_2_" d="M20.79,42.92c-4.23,1.39-5.57-3.02-1.69-5.6c8.59-5.72,0.27-16.94-7.2-10.27
				c-5.01,5.52-4.26,15.4,5.97,17.46"/>
		</defs>
		<clipPath id="SVGID_3_">
			<use xlink:href="#SVGID_2_"  style="overflow:visible;"/>
		</clipPath>
		<path class="st3" d="M4.15,42.93c5.08,4.52,33.48,22.16,13.31-4.36c1.58-1.62,3-3.29-0.64-2.15c-2.91,0.93-1.93-0.65-2.18-1.24
			c-0.52-3.02-4.29-0.61-3.67-3.17c0.73-3.71-0.24-3.16-1.3-0.92C8.08,33.09,0.46,38.43,4.15,42.93z"/>
	</g>
</g>
<path class="st4" d="M13.84,42.77c9.01,5.58,24.87,0.31,27.03-9.68c2.2-9.88-11.01-9.76-11.01-3.22
	C29.92,37.47,21.04,46.96,13.84,42.77z"/>
<rect x="12.82" y="12.31" transform="matrix(0.6268 -0.7792 0.7792 0.6268 -1.5001 28.1219)" class="st5" width="31.57" height="6.63"/>
</svg>
