<?xml version="1.0" encoding="utf-8"?>
<!-- Generator: Adobe Adobe Illustrator 24.2.0, SVG Export Plug-In . SVG Version: 6.00 Build 0)  -->
<svg version="1.1" xmlns="http://www.w3.org/2000/svg" xmlns:xlink="http://www.w3.org/1999/xlink" x="0px" y="0px" width="62.5px"
	 height="62.5px" viewBox="0 0 62.5 62.5" style="enable-background:new 0 0 62.5 62.5;" xml:space="preserve">
<style type="text/css">
	.st0{fill:#FFFFFF;stroke:#FFFFFF;stroke-width:2;stroke-linecap:round;stroke-linejoin:round;stroke-miterlimit:10;}
	.st1{fill:#F3E064;stroke:#F3E064;stroke-width:0.5;stroke-linecap:round;stroke-linejoin:round;stroke-miterlimit:10;}
	.st2{fill:#F92891;stroke:#F92891;stroke-width:0.5;stroke-linecap:round;stroke-linejoin:round;stroke-miterlimit:10;}
	
		.st3{clip-path:url(#SVGID_2_);fill:#28B0D1;stroke:#28B0D1;stroke-width:0.5;stroke-linecap:round;stroke-linejoin:round;stroke-miterlimit:10;}
	.st4{fill:#28B0D1;stroke:#28B0D1;stroke-width:0.5;stroke-linecap:round;stroke-linejoin:round;stroke-miterlimit:10;}
	.st5{stroke:#000000;stroke-width:0.5;stroke-linecap:round;stroke-linejoin:round;stroke-miterlimit:10;}
</style>
<g id="Layer_4">
	<circle class="st0" cx="31.2" cy="31.12" r="24.88"/>
</g>
<g id="Layer_1">
	<path class="st1" d="M42.31,13.12c-2.99-1.82-8.69-0.03-6.92,4.7c1.45,3.93-4,5.83-5.37,2.54C28.7,16.82,32.64,7.29,42.31,13.12z"
		/>
	<path class="st2" d="M42.65,13.52c-7.02-3.75-11.42,3.59-10.51,10.06c-0.58,4.35-6.26,3.11-5.97-0.05
		c0.67-8.24,8.57-14.25,16.43-10.05L42.65,13.52z"/>
	<g>
		<defs>
			<path id="SVGID_1_" d="M37.63,13.05c4.35-0.92,5.21,3.6,1.08,5.75c-9.16,4.76-2.09,16.81,6.05,10.98c5.57-4.95,5.9-14.85-4.05-18
				"/>
		</defs>
		<use xlink:href="#SVGID_1_"  style="overflow:visible;"/>
		<clipPath id="SVGID_2_">
			<use xlink:href="#SVGID_1_"  style="overflow:visible;"/>
		</clipPath>
		<path class="st3" d="M54.18,14.83c-4.56-5.04-30.9-25.63-13.7,2.9c-1.74,1.44-3.34,2.95,0.41,2.21c3-0.61,1.85,0.85,2.03,1.47
			c0.19,3.06,4.2,1.07,3.3,3.54c-1.12,3.61-0.11,3.17,1.2,1.06C49.21,24.19,57.35,19.7,54.18,14.83z"/>
	</g>
	<path class="st4" d="M44.52,13.94c-8.35-6.51-24.69-2.98-27.91,6.71c-3.25,9.59,9.9,10.89,10.6,4.38
		C27.96,17.48,37.81,9,44.52,13.94z"/>
	
		<rect x="23.37" y="22.3" transform="matrix(-0.7071 -0.7071 0.7071 -0.7071 17.9341 85.5252)" class="st5" width="6.63" height="33.5"/>
</g>
</svg>
